<svg fill="#000000" viewBox="0 0 24 24" id="film-movie" data-name="Flat Color" xmlns="http://www.w3.org/2000/svg" class="icon flat-color"><g id="SVGRepo_bgCarrier" stroke-width="0"></g><g id="SVGRepo_tracerCarrier" stroke-linecap="round" stroke-linejoin="round"></g><g id="SVGRepo_iconCarrier"><path id="secondary" d="M21,20H19V17a1,1,0,0,0-1-1H6a1,1,0,0,0-1,1v3H3a1,1,0,0,0,0,2H21a1,1,0,0,0,0-2ZM11,20H7V18h4Zm6,0H13V18h4ZM21,2H3A1,1,0,0,0,3,4H5V7A1,1,0,0,0,6,8H18a1,1,0,0,0,1-1V4h2a1,1,0,0,0,0-2ZM11,6H7V4h4Zm6,0H13V4h4Z" style="fill: #2ca9bc;"></path><rect id="primary" x="2" y="6" width="20" height="12" rx="2" style="fill: #000000;"></rect><path id="secondary-2" data-name="secondary" d="M11,14.5a1,1,0,0,1-.45-.11A1,1,0,0,1,10,13.5v-3a1,1,0,0,1,1.6-.8l2,1.5a1,1,0,0,1,0,1.6l-2,1.5A1,1,0,0,1,11,14.5Z" style="fill: #2ca9bc;"></path></g></svg>